# xmcd
#
# Track frame offsets:
#	150
#	14850
#	30111
#	44442
#	60260
#	75620
#	86886
#	102255
#	122520
#	137071
#
# Disc length: 2059 seconds
# Revision: 0
# Processed by: cddbd v1.5.2PL0 Copyright (c) Steve Scherf et al.
# Submitted via: dBpowerAMP V12.0
#
DISCID=7808090a
DTITLE=Sammy Eubanks - Sugar Me
DYEAR=2016
DGENRE=Blues
TTITLE0=It's All Blues To Me
TTITLE1=Stop That Grinin'
TTITLE2=Blues All Mornin'
TTITLE3=I Just Wanna Make Love To You
TTITLE4=My Baby's Gone
TTITLE5=Sugar Me
TTITLE6=No Excuse For The Blues
TTITLE7=Born To Love You
TTITLE8=It's My Life Baby
TTITLE9=I'm Gonna Leave You
EXTD=
EXTT0=
EXTT1=
EXTT2=
EXTT3=
EXTT4=
EXTT5=
EXTT6=
EXTT7=
EXTT8=
EXTT9=
PLAYORDER=
